# xmcd
#
# Track frame offsets: 
#        150
#        11092
#        25242
#        37730
#        51440
#        64090
#        75537
#        85200
#        96060
#        101032
#        126510
#        138460
#        150905
#        163137
#        179372
#
# Disc length: 2661 seconds
#
# Revision: 4
# Processed by: cddbd v1.5.2PL0 Copyright (c) Steve Scherf et al.
# Submitted via: ExactAudioCopy v0.99pb4
#
DISCID=be0a630f
DTITLE=Jan Johansson - En resa i jazz och folkton
DYEAR=1995
DGENRE=Jazz
TTITLE0=Jannes Boogie
TTITLE1=Flottarkärlek
TTITLE2=Hålligång the orgel
TTITLE3=Jag har bott vid en landsväg
TTITLE4=Dubbeltvist
TTITLE5=Tea for two
TTITLE6=Säg det i toner
TTITLE7=September in the rain
TTITLE8=Tico Tico
TTITLE9=Lapp-Nils polska
TTITLE10=Berg-Kirstis polska
TTITLE11=I fjol så gick jag med herrarna i hagen
TTITLE12=Johan Gustafssons vals
TTITLE13=In the night
TTITLE14=Two little pearls
EXTD=Disc ID: 0016efd5-be0a630f
EXTT0=
EXTT1=
EXTT2=
EXTT3=
EXTT4=
EXTT5=
EXTT6=
EXTT7=
EXTT8=
EXTT9=
EXTT10=
EXTT11=
EXTT12=
EXTT13=
EXTT14=
PLAYORDER=
